<svg width="21" height="21" viewBox="0 0 21 21" fill="none" xmlns="http://www.w3.org/2000/svg">
<path d="M15.2415 7.19727C16.0201 7.21976 16.7631 7.37534 17.4456 7.73145L17.7347 7.89648C18.5869 8.42864 19.148 9.17657 19.5081 10.0713L19.6507 10.4639C19.9219 11.2967 20.0111 12.1562 20.012 13.0273L20.013 20.5586L20.0062 20.6982H15.7386V20.5176L15.7396 13.5918L15.7318 13.2246C15.7183 12.9187 15.6852 12.615 15.6204 12.3135L15.5775 12.1328C15.319 11.1383 14.6305 10.6683 13.8958 10.5664C13.2084 10.4712 12.4797 10.6976 12.0247 11.1152L11.9378 11.2021C11.5482 11.6157 11.2756 12.0771 11.2054 12.6299L11.1878 12.8721C11.1851 13.0273 11.1761 13.1855 11.1761 13.3418L11.1751 20.5098V20.6973H6.9173V7.51172H11.1732V9.2793L11.1819 9.2832C11.1927 9.28781 11.2055 9.29303 11.2171 9.29785L11.2278 9.30273L11.2347 9.29297L11.3275 9.16992C11.7029 8.6524 12.1265 8.18679 12.6644 7.8418L12.9017 7.70215C13.5401 7.35641 14.2236 7.21134 14.9349 7.19629L15.2415 7.19727Z" fill="#070707" stroke="#070707" stroke-width="0.0306072"/>
<path d="M4.26624 7.50781V20.7051H0.0308838V7.50781H4.26624Z" fill="#070707" stroke="#070707" stroke-width="0.0306072"/>
<path d="M2.33093 0.929688C2.99861 0.928797 3.56767 1.16372 3.97058 1.56543C4.37352 1.96728 4.61087 2.53683 4.61316 3.20605L4.60339 3.44922C4.55361 4.00615 4.32609 4.48188 3.96863 4.83105C3.56005 5.23003 2.98048 5.46445 2.29968 5.46484L2.05457 5.4541C0.856822 5.34643 0.025797 4.44206 0.0233154 3.20117L0.0340576 2.95703C0.135155 1.84151 0.944894 1.04339 2.08191 0.94043L2.33093 0.929688Z" fill="#070707" stroke="#070707" stroke-width="0.0306072"/>
</svg>
