<?xml version="1.0" encoding="UTF-8" standalone="no"?>
<svg
   width="25"
   height="25"
   viewBox="0 0 25 25"
   fill="none"
   version="1.1"
   id="svg1"
   sodipodi:docname="hand-point-up.svg"
   inkscape:version="1.4.2 (f4327f4, 2025-05-13)"
   xmlns:inkscape="http://www.inkscape.org/namespaces/inkscape"
   xmlns:sodipodi="http://sodipodi.sourceforge.net/DTD/sodipodi-0.dtd"
   xmlns="http://www.w3.org/2000/svg"
   xmlns:svg="http://www.w3.org/2000/svg">
  <defs
     id="defs1" />
  <sodipodi:namedview
     id="namedview1"
     pagecolor="#ffffff"
     bordercolor="#000000"
     borderopacity="0.25"
     inkscape:showpageshadow="2"
     inkscape:pageopacity="0.0"
     inkscape:pagecheckerboard="0"
     inkscape:deskcolor="#d1d1d1"
     inkscape:zoom="21.52"
     inkscape:cx="12.5"
     inkscape:cy="12.5"
     inkscape:window-width="1440"
     inkscape:window-height="740"
     inkscape:window-x="-6"
     inkscape:window-y="-6"
     inkscape:window-maximized="1"
     inkscape:current-layer="svg1" />
  <path
     d="M9.74863 0C10.9022 0 11.8886 1.0083 11.8886 2.1875V7.06304C12.721 6.26519 14.3186 6.16724 15.3526 7.37061C16.4673 6.67295 17.9414 7.26577 18.3954 8.17383C20.7948 7.73564 21.875 9.24541 21.875 11.7188C21.875 11.8528 21.8651 12.367 21.8655 12.5C21.8737 15.5259 20.3486 16.2546 19.9946 18.5416C19.9064 19.1115 19.414 19.5312 18.8372 19.5312H10.462L10.4619 19.5312C9.56514 19.5306 8.70952 19.0132 8.32105 18.1413C7.68657 16.7309 5.92661 13.4825 4.54551 12.8906C3.65708 12.5099 3.12539 11.8465 3.125 10.9375C3.12432 9.2665 4.83877 8.11758 6.39199 8.78325C6.80015 8.9582 7.20596 9.18911 7.60869 9.47432V2.1875C7.60869 1.04248 8.61177 0 9.74863 0ZM9.76562 20.3125H19.1406C19.7878 20.3125 20.3125 20.8372 20.3125 21.4844V23.8281C20.3125 24.4753 19.7878 25 19.1406 25H9.76562C9.11841 25 8.59375 24.4753 8.59375 23.8281V21.4844C8.59375 20.8372 9.11841 20.3125 9.76562 20.3125ZM17.9688 21.6797C17.4294 21.6797 16.9922 22.1169 16.9922 22.6562C16.9922 23.1956 17.4294 23.6328 17.9688 23.6328C18.5081 23.6328 18.9453 23.1956 18.9453 22.6562C18.9453 22.1169 18.5081 21.6797 17.9688 21.6797Z"
     fill="black"
     id="path1" />
</svg>
